<svg width="72" height="20" viewBox="0 0 72 20" fill="none" xmlns="http://www.w3.org/2000/svg">
<path d="M58.8033 0.0250244L12.9517 19.975L55.3033 12.975L58.8033 0.0250244Z" fill="url(#paint0_linear_6_15)"/>
<path d="M58.8033 0.0250244L55.3033 12.975L71.7549 19.975L58.8033 0.0250244Z" fill="url(#paint1_linear_6_15)"/>
<path d="M55.3033 12.975L12.9517 19.975H71.7549L55.3033 12.975Z" fill="url(#paint2_linear_6_15)"/>
<path d="M12.9516 19.975L58.8032 0.0249748L16.4516 7.02497L12.9516 19.975Z" fill="url(#paint3_linear_6_15)"/>
<path d="M12.9516 19.975L16.4516 7.02497L0 0.0249748L12.9516 19.975Z" fill="url(#paint4_linear_6_15)"/>
<path d="M16.4516 7.02497L58.8032 0.0249748H0L16.4516 7.02497Z" fill="url(#paint5_linear_6_15)"/>
<defs>
<linearGradient id="paint0_linear_6_15" x1="42.3533" y1="0.0250244" x2="42.3533" y2="19.975" gradientUnits="userSpaceOnUse">
<stop/>
<stop offset="1" stop-color="#9D9D9D"/>
</linearGradient>
<linearGradient id="paint1_linear_6_15" x1="42.3533" y1="0.0250244" x2="42.3533" y2="19.975" gradientUnits="userSpaceOnUse">
<stop stop-color="#525252"/>
<stop offset="1" stop-color="#EEEEEE"/>
</linearGradient>
<linearGradient id="paint2_linear_6_15" x1="42.3533" y1="12.975" x2="42.3533" y2="19.975" gradientUnits="userSpaceOnUse">
<stop stop-color="#888888"/>
<stop offset="1"/>
</linearGradient>
<linearGradient id="paint3_linear_6_15" x1="29.4016" y1="19.975" x2="29.4016" y2="0.0249748" gradientUnits="userSpaceOnUse">
<stop/>
<stop offset="1" stop-color="#9D9D9D"/>
</linearGradient>
<linearGradient id="paint4_linear_6_15" x1="29.4016" y1="19.975" x2="29.4016" y2="0.0249748" gradientUnits="userSpaceOnUse">
<stop stop-color="#525252"/>
<stop offset="1" stop-color="#EEEEEE"/>
</linearGradient>
<linearGradient id="paint5_linear_6_15" x1="29.4016" y1="7.02497" x2="29.4016" y2="0.024974" gradientUnits="userSpaceOnUse">
<stop stop-color="#888888"/>
<stop offset="1"/>
</linearGradient>
</defs>
</svg>
