<svg width="167" height="240" viewBox="0 0 167 240" fill="none" xmlns="http://www.w3.org/2000/svg">
<g id="Vector">
<path d="M66.3878 1.22225C68.2271 3.06153 69.1467 5.43322 69.1467 8.33735C69.1467 10.7574 68.6143 13.2259 67.5495 15.7429L41.5576 68.4526V102.866H29.5055V71.6472L0.464355 1.22225H12.8069L38.9293 65.0982L63.8018 13.7377C64.8667 11.3176 65.3991 8.80066 65.3991 6.18696C65.3991 3.57325 64.6731 1.54036 63.221 0.0883034L66.3878 1.22225Z" fill="black"/>
<path d="M76.3968 54.5129C76.3968 36.8945 80.6562 23.5356 89.1749 14.436C97.7905 5.23962 108.826 0.641424 122.282 0.641424C135.738 0.641424 146.434 4.61039 154.372 12.5483C162.407 20.4863 166.424 33.1676 166.424 50.5923C166.424 68.017 162.165 81.1824 153.646 90.0883C145.128 98.9943 133.753 103.447 119.523 103.447C107.229 103.447 97.1613 99.914 89.3202 92.8473C85.2544 89.1687 82.0599 84.0865 79.7366 77.6006C77.5101 71.018 76.3968 63.322 76.3968 54.5129ZM121.846 2.09349C112.069 2.09349 104.034 6.44967 97.7421 15.162C91.5466 23.8744 88.4489 36.6525 88.4489 53.4964C88.4489 70.3403 91.4014 82.6344 97.3065 90.3788C103.212 98.1231 111.053 101.995 120.83 101.995C130.704 101.995 138.739 97.6391 144.934 88.9267C151.226 80.1175 154.372 67.3878 154.372 50.7375C154.372 33.9904 151.371 21.6963 145.37 13.8552C139.465 6.01405 131.623 2.09349 121.846 2.09349Z" fill="black"/>
<path d="M64.476 238.997H9.29771V137.353H21.3498V234.32H64.476V238.997Z" fill="black"/>
<path d="M68.9286 190.644C68.9286 173.025 73.1879 159.666 81.7067 150.567C90.3222 141.37 101.358 136.772 114.814 136.772C128.269 136.772 138.966 140.741 146.904 148.679C154.939 156.617 158.956 169.298 158.956 186.723C158.956 204.148 154.697 217.313 146.178 226.219C137.659 235.125 126.285 239.578 112.055 239.578C99.7606 239.578 89.693 236.045 81.8519 228.978C77.7861 225.299 74.5916 220.217 72.2683 213.731C70.0418 207.149 68.9286 199.453 68.9286 190.644ZM114.378 138.224C104.601 138.224 96.5661 142.58 90.2738 151.293C84.0784 160.005 80.9806 172.783 80.9806 189.627C80.9806 206.471 83.9332 218.765 89.8382 226.509C95.7432 234.254 103.584 238.126 113.362 238.126C123.236 238.126 131.27 233.77 137.466 225.057C143.758 216.248 146.904 203.518 146.904 186.868C146.904 170.121 143.903 157.827 137.901 149.986C131.996 142.145 124.155 138.224 114.378 138.224Z" fill="black"/>
</g>
</svg>
