<svg width="42" height="41" viewBox="0 0 42 41" fill="none" xmlns="http://www.w3.org/2000/svg">
<path d="M14.8444 20H28.4808C28.6616 20 28.835 20.0527 28.9629 20.1464C29.0908 20.2402 29.1626 20.3674 29.1626 20.5C29.1626 20.6326 29.0908 20.7598 28.9629 20.8536C28.835 20.9473 28.6616 21 28.4808 21H14.8444C14.6636 21 14.4902 20.9473 14.3623 20.8536C14.2344 20.7598 14.1626 20.6326 14.1626 20.5C14.1626 20.3674 14.2344 20.2402 14.3623 20.1464C14.4902 20.0527 14.6636 20 14.8444 20Z" fill="black"/>
<path d="M15.6995 20.5L20.976 25.8891C21.0955 26.0112 21.1626 26.1767 21.1626 26.3493C21.1626 26.5218 21.0955 26.6874 20.976 26.8094C20.8566 26.9314 20.6945 27 20.5256 27C20.3567 27 20.1946 26.9314 20.0752 26.8094L14.3495 20.9601C14.2903 20.8998 14.2433 20.8281 14.2112 20.7491C14.1791 20.6701 14.1626 20.5855 14.1626 20.5C14.1626 20.4145 14.1791 20.3299 14.2112 20.2509C14.2433 20.1719 14.2903 20.1002 14.3495 20.0399L20.0752 14.1906C20.1946 14.0686 20.3567 14 20.5256 14C20.6945 14 20.8566 14.0686 20.976 14.1906C21.0955 14.3126 21.1626 14.4782 21.1626 14.6507C21.1626 14.8233 21.0955 14.9888 20.976 15.1109L15.6995 20.5Z" fill="black"/>
</svg>
