<svg width="42" height="41" viewBox="0 0 42 41" fill="none" xmlns="http://www.w3.org/2000/svg">
<path d="M27.1556 20H13.5192C13.3384 20 13.165 20.0527 13.0371 20.1464C12.9092 20.2402 12.8374 20.3674 12.8374 20.5C12.8374 20.6326 12.9092 20.7598 13.0371 20.8536C13.165 20.9473 13.3384 21 13.5192 21H27.1556C27.3364 21 27.5098 20.9473 27.6377 20.8536C27.7656 20.7598 27.8374 20.6326 27.8374 20.5C27.8374 20.3674 27.7656 20.2402 27.6377 20.1464C27.5098 20.0527 27.3364 20 27.1556 20Z" fill="black"/>
<path d="M26.3005 20.5L21.024 25.8891C20.9045 26.0112 20.8374 26.1767 20.8374 26.3493C20.8374 26.5218 20.9045 26.6874 21.024 26.8094C21.1434 26.9314 21.3055 27 21.4744 27C21.6433 27 21.8054 26.9314 21.9248 26.8094L27.6505 20.9601C27.7097 20.8998 27.7567 20.8281 27.7888 20.7491C27.8209 20.6701 27.8374 20.5855 27.8374 20.5C27.8374 20.4145 27.8209 20.3299 27.7888 20.2509C27.7567 20.1719 27.7097 20.1002 27.6505 20.0399L21.9248 14.1906C21.8054 14.0686 21.6433 14 21.4744 14C21.3055 14 21.1434 14.0686 21.024 14.1906C20.9045 14.3126 20.8374 14.4782 20.8374 14.6507C20.8374 14.8233 20.9045 14.9888 21.024 15.1109L26.3005 20.5Z" fill="black"/>
</svg>
